<?xml version="1.0" encoding="UTF-8" standalone="no"?><svg xmlns="http://www.w3.org/2000/svg" xmlns:xlink="http://www.w3.org/1999/xlink" contentScriptType="application/ecmascript" contentStyleType="text/css" height="279px" preserveAspectRatio="none" style="width:538px;height:279px;" version="1.1" viewBox="0 0 538 279" width="538px" zoomAndPan="magnify"><defs/><g><ellipse cx="190.0919" cy="202.8774" fill="#F8F8F8" rx="22.0919" ry="12.8774" style="stroke: #383838; stroke-width: 0.5;"/><text fill="#000000" font-family="Tahoma, sans-serif" font-size="12" lengthAdjust="spacingAndGlyphs" textLength="27" x="176.5919" y="206.3618">auth</text><ellipse cx="462.2237" cy="91.4447" fill="#F8F8F8" rx="65.2237" ry="15.4447" style="stroke: #383838; stroke-width: 0.5;"/><text fill="#000000" font-family="Tahoma, sans-serif" font-size="12" lengthAdjust="spacingAndGlyphs" textLength="103" x="410.7237" y="94.9291">bioinfo.controller</text><ellipse cx="460.8594" cy="147.8719" fill="#F8F8F8" rx="62.3594" ry="14.8719" style="stroke: #383838; stroke-width: 0.5;"/><text fill="#000000" font-family="Tahoma, sans-serif" font-size="12" lengthAdjust="spacingAndGlyphs" textLength="96" x="412.8594" y="151.3563">bioinfo.services</text><ellipse cx="64.098" cy="255.8774" fill="#F8F8F8" rx="42.598" ry="12.8774" style="stroke: #383838; stroke-width: 0.5;"/><text fill="#000000" font-family="Tahoma, sans-serif" font-size="12" lengthAdjust="spacingAndGlyphs" textLength="56" x="36.098" y="259.3618">db.config</text><ellipse cx="64.0072" cy="203.0014" fill="#F8F8F8" rx="58.0072" ry="14.0014" style="stroke: #383838; stroke-width: 0.5;"/><text fill="#000000" font-family="Tahoma, sans-serif" font-size="12" lengthAdjust="spacingAndGlyphs" textLength="85" x="21.5072" y="206.4858">dbConnection</text><ellipse cx="270.9203" cy="36.8774" fill="#F8F8F8" rx="24.9203" ry="12.8774" style="stroke: #383838; stroke-width: 0.5;"/><text fill="#000000" font-family="Tahoma, sans-serif" font-size="12" lengthAdjust="spacingAndGlyphs" textLength="31" x="255.4203" y="40.3618">error</text><ellipse cx="202.0772" cy="36.8774" fill="#F8F8F8" rx="30.5772" ry="12.8774" style="stroke: #383838; stroke-width: 0.5;"/><text fill="#000000" font-family="Tahoma, sans-serif" font-size="12" font-weight="bold" lengthAdjust="spacingAndGlyphs" textLength="39" x="182.5772" y="40.3618">index</text><ellipse cx="364.7843" cy="36.8774" fill="#F8F8F8" rx="31.2843" ry="12.8774" style="stroke: #383838; stroke-width: 0.5;"/><text fill="#000000" font-family="Tahoma, sans-serif" font-size="12" lengthAdjust="spacingAndGlyphs" textLength="40" x="344.7843" y="40.3618">routes</text><ellipse cx="69.0537" cy="91.7107" fill="#F8F8F8" rx="61.5537" ry="14.7107" style="stroke: #383838; stroke-width: 0.5;"/><text fill="#000000" font-family="Tahoma, sans-serif" font-size="12" lengthAdjust="spacingAndGlyphs" textLength="94" x="22.0537" y="95.1951">testConnection</text><ellipse cx="362.8909" cy="255.8774" fill="#F8F8F8" rx="41.8909" ry="12.8774" style="stroke: #383838; stroke-width: 0.5;"/><text fill="#000000" font-family="Tahoma, sans-serif" font-size="12" lengthAdjust="spacingAndGlyphs" textLength="55" x="335.3909" y="259.3618">url.config</text><ellipse cx="270.0667" cy="91.3133" fill="#F8F8F8" rx="59.5667" ry="14.3133" style="stroke: #383838; stroke-width: 0.5;"/><text fill="#000000" font-family="Tahoma, sans-serif" font-size="12" lengthAdjust="spacingAndGlyphs" textLength="89" x="225.5667" y="94.7977">user.controller</text><ellipse cx="110.0667" cy="147.8133" fill="#F8F8F8" rx="59.5667" ry="14.3133" style="stroke: #383838; stroke-width: 0.5;"/><text fill="#000000" font-family="Tahoma, sans-serif" font-size="12" lengthAdjust="spacingAndGlyphs" textLength="89" x="65.5667" y="151.2977">users.services</text><!--MD5=[7af46a04007319a2eb735d816cab1e1e]
link auth to url.config--><path d="M209.175,209.6528 C238.019,218.156 293.003,234.365 328.819,244.9234 " fill="none" id="auth-&gt;url.config" style="stroke: #000000; stroke-width: 0.5;"/><polygon fill="#000000" points="333.958,246.4386,326.4552,240.0584,329.1618,245.0257,324.1945,247.7323,333.958,246.4386" style="stroke: #000000; stroke-width: 0.5;"/><!--MD5=[3ad1d44302e854c6706f7b03d1afa140]
link bioinfo.controller to bioinfo.services--><path d="M461.732,107.105 C461.616,113.437 461.478,120.939 461.354,127.719 " fill="none" id="bioinfo.controller-&gt;bioinfo.services" style="stroke: #000000; stroke-width: 0.5;"/><polygon fill="#000000" points="461.262,132.732,465.4259,123.8067,461.3534,127.7328,457.4273,123.6604,461.262,132.732" style="stroke: #000000; stroke-width: 0.5;"/><!--MD5=[dd00b8a9541624c28d53d1d6828aa3e0]
link bioinfo.services to url.config--><path d="M448.188,162.858 C429.899,182.6393 396.414,218.858 377.326,239.5042 " fill="none" id="bioinfo.services-&gt;url.config" style="stroke: #000000; stroke-width: 0.5;"/><polygon fill="#000000" points="373.709,243.4164,382.7558,239.5233,377.1032,239.745,376.8815,234.0925,373.709,243.4164" style="stroke: #000000; stroke-width: 0.5;"/><!--MD5=[fc9deb32eb6ba222598931b0c5e35d68]
link dbConnection to db.config--><path d="M64,217.1338 C64,223.3132 64,230.7709 64,237.4281 " fill="none" id="dbConnection-&gt;db.config" style="stroke: #000000; stroke-width: 0.5;"/><polygon fill="#000000" points="64,242.7863,68,233.7863,64,237.7863,60,233.7863,64,242.7863" style="stroke: #000000; stroke-width: 0.5;"/><!--MD5=[50286d6caec8ef31bd4e1f99835f3767]
link <b>index</b> to auth--><path d="M201.118,50.059 C199.011,78.848 193.683,151.659 191.249,184.9347 " fill="none" id="&lt;b&gt;index&lt;/b&gt;-&gt;auth" style="stroke: #000000; stroke-width: 1.0;"/><polygon fill="#000000" points="190.884,189.923,195.5303,181.239,191.249,184.9363,187.5516,180.655,190.884,189.923" style="stroke: #000000; stroke-width: 1.0;"/><!--MD5=[ad2149ea9bc3bc5652e078241eba4e64]
link <b>index</b> to error--><path d="M232.727,37 C235.33,37 237.934,37 240.538,37 " fill="none" id="&lt;b&gt;index&lt;/b&gt;-&gt;error" style="stroke: #000000; stroke-width: 1.0;"/><polygon fill="#000000" points="245.883,37,236.883,33,240.883,37,236.883,41,245.883,37" style="stroke: #000000; stroke-width: 1.0;"/><!--MD5=[fd138d533853b6a9e7a6e87d4aed7c8c]
link <b>index</b> to routes--><path d="M216.774,25.435 C224.789,19.895 235.153,13.856 245.5,11 C277.926,2.048 315.988,14.136 340.289,24.649 " fill="none" id="&lt;b&gt;index&lt;/b&gt;-&gt;routes" style="stroke: #000000; stroke-width: 1.0;"/><polygon fill="#000000" points="344.96,26.724,338.3596,19.4141,340.3908,24.6937,335.1111,26.7249,344.96,26.724" style="stroke: #000000; stroke-width: 1.0;"/><!--MD5=[682cdba5138f139726d194d30aeeb183]
link <b>index</b> to testConnection--><path d="M180.631,46.435 C159.841,54.642 127.909,67.246 103.5146,76.876 " fill="none" id="&lt;b&gt;index&lt;/b&gt;-&gt;testConnection" style="stroke: #000000; stroke-width: 1.0;"/><polygon fill="#000000" points="98.7417,78.76,108.5818,79.1763,103.3925,76.9242,105.6445,71.735,98.7417,78.76" style="stroke: #000000; stroke-width: 1.0;"/><!--MD5=[46eb872698ec2b69156b303a6a067004]
link <b>index</b> to url.config--><path d="M225.035,45.674 C229.647,47.153 234.467,48.658 239,50 C281.798,62.667 306.259,42.72 336,76 C346.719,87.995 357.563,195.2996 361.475,237.7884 " fill="none" id="&lt;b&gt;index&lt;/b&gt;-&gt;url.config" style="stroke: #000000; stroke-width: 1.0;"/><polygon fill="#000000" points="361.939,242.8719,365.1054,233.5459,361.4851,237.8925,357.1384,234.2722,361.939,242.8719" style="stroke: #000000; stroke-width: 1.0;"/><!--MD5=[ea5ebc87cd7344a1b5be6f0da408a8ca]
link routes to bioinfo.controller--><path d="M383.245,47.875 C397.19,55.423 416.692,65.978 432.8,74.696 " fill="none" id="routes-&gt;bioinfo.controller" style="stroke: #000000; stroke-width: 0.5;"/><polygon fill="#000000" points="437.246,77.102,431.2351,69.3002,432.8488,74.722,427.427,76.3357,437.246,77.102" style="stroke: #000000; stroke-width: 0.5;"/><!--MD5=[16383668818d6257be39837ec21b431c]
link routes to url.config--><path d="M364.887,50.289 C364.549,86.916 363.549,195.4232 363.159,237.7846 " fill="none" id="routes-&gt;url.config" style="stroke: #000000; stroke-width: 0.5;"/><polygon fill="#000000" points="363.112,242.8462,367.1949,233.8835,363.1581,237.8464,359.1952,233.8097,363.112,242.8462" style="stroke: #000000; stroke-width: 0.5;"/><!--MD5=[1f7e3e051fd9c710ee3d51caa77b88f7]
link routes to user.controller--><path d="M347.131,47.875 C332.982,55.694 312.992,66.741 296.908,75.63 " fill="none" id="routes-&gt;user.controller" style="stroke: #000000; stroke-width: 0.5;"/><polygon fill="#000000" points="292.484,78.075,302.2959,77.2221,296.86,75.6563,298.4259,70.2204,292.484,78.075" style="stroke: #000000; stroke-width: 0.5;"/><!--MD5=[4a9bef8a1a8210d6d0ca061ab55521b4]
link testConnection to dbConnection--><path d="M58.1453,105.837 C52.7501,113.333 46.7972,123.143 44,133 C40.3599,145.827 40.8705,150.039 44,163 C45.7648,170.3088 49.1469,177.7859 52.6349,184.2124 " fill="none" id="testConnection-&gt;dbConnection" style="stroke: #000000; stroke-width: 0.5;"/><polygon fill="#000000" points="55.2978,188.9018,54.332,179.1004,52.8289,184.5539,47.3754,183.0507,55.2978,188.9018" style="stroke: #000000; stroke-width: 0.5;"/><!--MD5=[f2c0a9eeff7c6d5ca537744752898b6b]
link user.controller to users.services--><path d="M237.236,103.66 C211.243,112.514 174.885,124.899 147.688,134.163 " fill="none" id="user.controller-&gt;users.services" style="stroke: #000000; stroke-width: 0.5;"/><polygon fill="#000000" points="142.721,135.855,152.5302,136.7381,147.4537,134.2422,149.9497,129.1657,142.721,135.855" style="stroke: #000000; stroke-width: 0.5;"/><!--MD5=[32af1f96e7be935b61416928e469443b]
link users.services to auth--><path d="M129.366,161.83 C142.215,170.3427 158.977,181.4474 171.62,189.8232 " fill="none" id="users.services-&gt;auth" style="stroke: #000000; stroke-width: 0.5;"/><polygon fill="#000000" points="176.076,192.7757,170.7822,184.4705,171.9077,190.0143,166.364,191.1398,176.076,192.7757" style="stroke: #000000; stroke-width: 0.5;"/><!--MD5=[079d8a6bda13387d169cfa871e156721]
link users.services to dbConnection--><path d="M98.3923,162.374 C92.3738,169.3084 84.9631,177.8469 78.5638,185.2199 " fill="none" id="users.services-&gt;dbConnection" style="stroke: #000000; stroke-width: 0.5;"/><polygon fill="#000000" points="75.128,189.1786,84.0481,185.0036,78.4054,185.4025,78.0064,179.7597,75.128,189.1786" style="stroke: #000000; stroke-width: 0.5;"/><script type="text/plantuml"><![CDATA[MD5=[60a343c6adc2351d7f3f8d47fe00c885]
@startuml

scale max 1920 width
top to bottom direction

skinparam nodesep 13
skinparam ranksep 26
skinparam monochrome true
skinparam shadowing false
skinparam defaultFontName Tahoma
skinparam defaultFontSize 12
skinparam roundCorner 6
skinparam dpi 150
skinparam arrowColor black
skinparam arrowThickness 0.5
skinparam packageTitleAlignment left

skinparam usecase {
  borderThickness 0.5
}

skinparam rectangle {
  borderThickness 0.5
}

skinparam component {
  borderThickness 1
}


(auth)
(bioinfo.controller)
(bioinfo.services)
(db.config)
(dbConnection)
(error)
(<b>index</b>)
(routes)
(testConnection)
(url.config)
(user.controller)
(users.services)


(auth) --> (url.config)
(bioinfo.controller) --> (bioinfo.services)
(bioinfo.services) --> (url.config)
(dbConnection) --> (db.config)
(<b>index</b>) -[thickness=1]> (auth)
(<b>index</b>) -[thickness=1]> (error)
(<b>index</b>) -[thickness=1]> (routes)
(<b>index</b>) -[thickness=1]> (testConnection)
(<b>index</b>) -[thickness=1]> (url.config)
(routes) --> (bioinfo.controller)
(routes) --> (url.config)
(routes) --> (user.controller)
(testConnection) --> (dbConnection)
(user.controller) --> (users.services)
(users.services) --> (auth)
(users.services) --> (dbConnection)

@enduml


' View and edit on https://arkit.pro
]]></script></g></svg>