<?xml version="1.0" encoding="UTF-8" standalone="no"?><svg xmlns="http://www.w3.org/2000/svg" xmlns:xlink="http://www.w3.org/1999/xlink" contentScriptType="application/ecmascript" contentStyleType="text/css" height="350px" preserveAspectRatio="none" style="width:477px;height:350px;" version="1.1" viewBox="0 0 477 350" width="477px" zoomAndPan="magnify"><defs/><g><ellipse cx="82.5919" cy="213.3774" fill="#F8F8F8" rx="22.0919" ry="12.8774" style="stroke: #383838; stroke-width: 0.5;"/><text fill="#000000" font-family="Tahoma, sans-serif" font-size="12" lengthAdjust="spacingAndGlyphs" textLength="27" x="69.0919" y="216.8618">auth</text><ellipse cx="263.7237" cy="95.4447" fill="#F8F8F8" rx="65.2237" ry="15.4447" style="stroke: #383838; stroke-width: 0.5;"/><text fill="#000000" font-family="Tahoma, sans-serif" font-size="12" lengthAdjust="spacingAndGlyphs" textLength="103" x="212.2237" y="98.9291">bioinfo.controller</text><ellipse cx="249.274" cy="213.4548" fill="#F8F8F8" rx="70.274" ry="16.4548" style="stroke: #383838; stroke-width: 0.5;"/><text fill="#000000" font-family="Tahoma, sans-serif" font-size="12" lengthAdjust="spacingAndGlyphs" textLength="115" x="191.774" y="216.9392">bioinfo.db.services</text><ellipse cx="223.3594" cy="153.8719" fill="#F8F8F8" rx="62.3594" ry="14.8719" style="stroke: #383838; stroke-width: 0.5;"/><text fill="#000000" font-family="Tahoma, sans-serif" font-size="12" lengthAdjust="spacingAndGlyphs" textLength="96" x="175.3594" y="157.3563">bioinfo.services</text><ellipse cx="249.598" cy="326.8774" fill="#F8F8F8" rx="42.598" ry="12.8774" style="stroke: #383838; stroke-width: 0.5;"/><text fill="#000000" font-family="Tahoma, sans-serif" font-size="12" lengthAdjust="spacingAndGlyphs" textLength="56" x="221.598" y="330.3618">db.config</text><ellipse cx="361.663" cy="271.8774" fill="#F8F8F8" rx="29.163" ry="12.8774" style="stroke: #383838; stroke-width: 0.5;"/><text fill="#000000" font-family="Tahoma, sans-serif" font-size="12" lengthAdjust="spacingAndGlyphs" textLength="37" x="343.163" y="275.3618">db.sql</text><ellipse cx="249.5072" cy="272.0014" fill="#F8F8F8" rx="58.0072" ry="14.0014" style="stroke: #383838; stroke-width: 0.5;"/><text fill="#000000" font-family="Tahoma, sans-serif" font-size="12" lengthAdjust="spacingAndGlyphs" textLength="85" x="207.0072" y="275.4858">dbConnection</text><ellipse cx="106.4203" cy="38.8774" fill="#F8F8F8" rx="24.9203" ry="12.8774" style="stroke: #383838; stroke-width: 0.5;"/><text fill="#000000" font-family="Tahoma, sans-serif" font-size="12" lengthAdjust="spacingAndGlyphs" textLength="31" x="90.9203" y="42.3618">error</text><ellipse cx="430.5269" cy="213.3774" fill="#F8F8F8" rx="35.5269" ry="12.8774" style="stroke: #383838; stroke-width: 0.5;"/><text fill="#000000" font-family="Tahoma, sans-serif" font-size="12" lengthAdjust="spacingAndGlyphs" textLength="46" x="407.5269" y="216.8618">helpers</text><ellipse cx="36.5772" cy="38.8774" fill="#F8F8F8" rx="30.5772" ry="12.8774" style="stroke: #383838; stroke-width: 0.5;"/><text fill="#000000" font-family="Tahoma, sans-serif" font-size="12" font-weight="bold" lengthAdjust="spacingAndGlyphs" textLength="39" x="17.0772" y="42.3618">index</text><ellipse cx="234.2843" cy="38.8774" fill="#F8F8F8" rx="31.2843" ry="12.8774" style="stroke: #383838; stroke-width: 0.5;"/><text fill="#000000" font-family="Tahoma, sans-serif" font-size="12" lengthAdjust="spacingAndGlyphs" textLength="40" x="214.2843" y="42.3618">routes</text><ellipse cx="122.5537" cy="95.7107" fill="#F8F8F8" rx="61.5537" ry="14.7107" style="stroke: #383838; stroke-width: 0.5;"/><text fill="#000000" font-family="Tahoma, sans-serif" font-size="12" lengthAdjust="spacingAndGlyphs" textLength="94" x="75.5537" y="99.1951">testConnection</text><ellipse cx="60.3909" cy="271.8774" fill="#F8F8F8" rx="41.8909" ry="12.8774" style="stroke: #383838; stroke-width: 0.5;"/><text fill="#000000" font-family="Tahoma, sans-serif" font-size="12" lengthAdjust="spacingAndGlyphs" textLength="55" x="32.8909" y="275.3618">url.config</text><ellipse cx="402.5667" cy="95.3133" fill="#F8F8F8" rx="59.5667" ry="14.3133" style="stroke: #383838; stroke-width: 0.5;"/><text fill="#000000" font-family="Tahoma, sans-serif" font-size="12" lengthAdjust="spacingAndGlyphs" textLength="89" x="358.0667" y="98.7977">user.controller</text><ellipse cx="372.5667" cy="153.8133" fill="#F8F8F8" rx="59.5667" ry="14.3133" style="stroke: #383838; stroke-width: 0.5;"/><text fill="#000000" font-family="Tahoma, sans-serif" font-size="12" lengthAdjust="spacingAndGlyphs" textLength="89" x="328.0667" y="157.2977">users.services</text><!--MD5=[7af46a04007319a2eb735d816cab1e1e]
link auth to url.config--><path d="M77.8344,226.482 C74.6842,234.572 70.4828,245.3624 67.0052,254.2936 " fill="none" id="auth-&gt;url.config" style="stroke: #000000; stroke-width: 0.5;"/><polygon fill="#000000" points="65.1589,259.0351,72.152,252.1,66.9732,254.3759,64.6973,249.1971,65.1589,259.0351" style="stroke: #000000; stroke-width: 0.5;"/><!--MD5=[3ad1d44302e854c6706f7b03d1afa140]
link bioinfo.controller to bioinfo.services--><path d="M253.199,111.05 C248.043,118.333 241.752,127.219 236.289,134.935 " fill="none" id="bioinfo.controller-&gt;bioinfo.services" style="stroke: #000000; stroke-width: 0.5;"/><polygon fill="#000000" points="233.352,139.084,241.8162,134.0485,236.2405,135.0027,235.2862,129.4269,233.352,139.084" style="stroke: #000000; stroke-width: 0.5;"/><!--MD5=[44f108c66e822bcb641f8cedb4675a8e]
link bioinfo.db.services to db.sql--><path d="M277.762,228.757 C296.48,238.2 320.729,250.4327 338.312,259.3023 " fill="none" id="bioinfo.db.services-&gt;db.sql" style="stroke: #000000; stroke-width: 0.5;"/><polygon fill="#000000" points="343.084,261.7097,336.8494,254.0854,338.6196,259.4582,333.2469,261.2284,343.084,261.7097" style="stroke: #000000; stroke-width: 0.5;"/><!--MD5=[87ae6d06e34bd2353471a3f7c78654d3]
link bioinfo.db.services to dbConnection--><path d="M249.5,230.238 C249.5,237.108 249.5,245.2136 249.5,252.3803 " fill="none" id="bioinfo.db.services-&gt;dbConnection" style="stroke: #000000; stroke-width: 0.5;"/><polygon fill="#000000" points="249.5,257.6416,253.5,248.6416,249.5,252.6416,245.5,248.6416,249.5,257.6416" style="stroke: #000000; stroke-width: 0.5;"/><!--MD5=[896eeba95cab3780330ee25554d9cf2a]
link bioinfo.services to auth--><path d="M193.598,167.194 C167.032,178.028 128.8,193.619 104.8218,203.397 " fill="none" id="bioinfo.services-&gt;auth" style="stroke: #000000; stroke-width: 0.5;"/><polygon fill="#000000" points="99.9308,205.392,109.7749,205.6973,104.5606,203.5039,106.754,198.2896,99.9308,205.392" style="stroke: #000000; stroke-width: 0.5;"/><!--MD5=[974bc92ef45aef551094c09b1c5949a0]
link bioinfo.services to bioinfo.db.services--><path d="M229.927,169.213 C233.065,176.154 236.897,184.628 240.335,192.232 " fill="none" id="bioinfo.services-&gt;bioinfo.db.services" style="stroke: #000000; stroke-width: 0.5;"/><polygon fill="#000000" points="242.416,196.833,242.3526,186.9843,240.3559,192.2771,235.0632,190.2805,242.416,196.833" style="stroke: #000000; stroke-width: 0.5;"/><!--MD5=[dd00b8a9541624c28d53d1d6828aa3e0]
link bioinfo.services to url.config--><path d="M204.483,168.534 C173.46,190.612 112.249,234.172 80.5624,256.7225 " fill="none" id="bioinfo.services-&gt;url.config" style="stroke: #000000; stroke-width: 0.5;"/><polygon fill="#000000" points="76.4783,259.6289,86.1303,257.6694,80.552,256.7298,81.4917,251.1515,76.4783,259.6289" style="stroke: #000000; stroke-width: 0.5;"/><!--MD5=[fc9deb32eb6ba222598931b0c5e35d68]
link dbConnection to db.config--><path d="M249.5,286.1011 C249.5,292.8431 249.5,301.1552 249.5,308.4445 " fill="none" id="dbConnection-&gt;db.config" style="stroke: #000000; stroke-width: 0.5;"/><polygon fill="#000000" points="249.5,313.7763,253.5,304.7763,249.5,308.7763,245.5,304.7763,249.5,313.7763" style="stroke: #000000; stroke-width: 0.5;"/><!--MD5=[50286d6caec8ef31bd4e1f99835f3767]
link <b>index</b> to auth--><path d="M39.2292,52.1 C42.4625,66.263 48.0947,90.404 53.5,111 C61.3578,140.941 71.471,175.558 77.4427,195.646 " fill="none" id="&lt;b&gt;index&lt;/b&gt;-&gt;auth" style="stroke: #000000; stroke-width: 1.0;"/><polygon fill="#000000" points="78.9398,200.67,80.2018,190.9023,77.5113,195.8784,72.5352,193.1879,78.9398,200.67" style="stroke: #000000; stroke-width: 1.0;"/><!--MD5=[ad2149ea9bc3bc5652e078241eba4e64]
link <b>index</b> to error--><path d="M67.125,39 C70.073,39 73.021,39 75.969,39 " fill="none" id="&lt;b&gt;index&lt;/b&gt;-&gt;error" style="stroke: #000000; stroke-width: 1.0;"/><polygon fill="#000000" points="81.2754,39,72.2754,35,76.2754,39,72.2754,43,81.2754,39" style="stroke: #000000; stroke-width: 1.0;"/><!--MD5=[fd138d533853b6a9e7a6e87d4aed7c8c]
link <b>index</b> to routes--><path d="M50.9686,27.554 C59.3628,21.653 70.4369,15.064 81.5,12 C125.297,-0.131 177.717,15.401 208.439,27.439 " fill="none" id="&lt;b&gt;index&lt;/b&gt;-&gt;routes" style="stroke: #000000; stroke-width: 1.0;"/><polygon fill="#000000" points="213.179,29.336,206.309,22.2788,208.5368,27.4786,203.3371,29.7063,213.179,29.336" style="stroke: #000000; stroke-width: 1.0;"/><!--MD5=[682cdba5138f139726d194d30aeeb183]
link <b>index</b> to testConnection--><path d="M52.6759,50.251 C65.3753,58.299 83.2718,69.64 97.7667,78.826 " fill="none" id="&lt;b&gt;index&lt;/b&gt;-&gt;testConnection" style="stroke: #000000; stroke-width: 1.0;"/><polygon fill="#000000" points="102.1464,81.602,96.6859,73.4055,97.9232,78.9253,92.4033,80.1626,102.1464,81.602" style="stroke: #000000; stroke-width: 1.0;"/><!--MD5=[46eb872698ec2b69156b303a6a067004]
link <b>index</b> to url.config--><path d="M32.8914,52.016 C24.3052,82.723 4.997,166.152 27.5,230 C30.8828,239.598 37.5683,248.6049 44.0424,255.7184 " fill="none" id="&lt;b&gt;index&lt;/b&gt;-&gt;url.config" style="stroke: #000000; stroke-width: 1.0;"/><polygon fill="#000000" points="47.5951,259.4673,44.3078,250.1832,44.1558,255.838,38.501,255.686,47.5951,259.4673" style="stroke: #000000; stroke-width: 1.0;"/><!--MD5=[ea5ebc87cd7344a1b5be6f0da408a8ca]
link routes to bioinfo.controller--><path d="M240.793,51.826 C244.435,58.67 249.106,67.45 253.265,75.265 " fill="none" id="routes-&gt;bioinfo.controller" style="stroke: #000000; stroke-width: 0.5;"/><polygon fill="#000000" points="255.774,79.98,255.078,70.1558,253.4255,75.5659,248.0154,73.9133,255.774,79.98" style="stroke: #000000; stroke-width: 0.5;"/><!--MD5=[16383668818d6257be39837ec21b431c]
link routes to url.config--><path d="M205.752,44.349 C157.14,51.992 63.0217,68.144 53.5,80 C12.3076,131.29 39.1132,217.686 53.3033,254.0561 " fill="none" id="routes-&gt;url.config" style="stroke: #000000; stroke-width: 0.5;"/><polygon fill="#000000" points="55.2958,259.049,55.675,249.2074,53.4425,254.4052,48.2448,252.1727,55.2958,259.049" style="stroke: #000000; stroke-width: 0.5;"/><!--MD5=[1f7e3e051fd9c710ee3d51caa77b88f7]
link routes to user.controller--><path d="M258.214,47.693 C285.602,56.578 331.061,71.325 363.637,81.893 " fill="none" id="routes-&gt;user.controller" style="stroke: #000000; stroke-width: 0.5;"/><polygon fill="#000000" points="368.75,83.551,361.4236,76.9689,363.994,82.0081,358.9549,84.5785,368.75,83.551" style="stroke: #000000; stroke-width: 0.5;"/><!--MD5=[4a9bef8a1a8210d6d0ca061ab55521b4]
link testConnection to dbConnection--><path d="M124.238,110.263 C128.198,136.48 140.105,194.155 171.5,230 C182.367,242.4075 197.915,251.6362 212.274,258.1629 " fill="none" id="testConnection-&gt;dbConnection" style="stroke: #000000; stroke-width: 0.5;"/><polygon fill="#000000" points="217.09,260.2734,210.4526,252.997,212.5105,258.2663,207.2413,260.3242,217.09,260.2734" style="stroke: #000000; stroke-width: 0.5;"/><!--MD5=[f2c0a9eeff7c6d5ca537744752898b6b]
link user.controller to users.services--><path d="M395.238,110.177 C391.332,117.533 386.462,126.705 382.232,134.672 " fill="none" id="user.controller-&gt;users.services" style="stroke: #000000; stroke-width: 0.5;"/><polygon fill="#000000" points="379.695,139.449,387.4482,133.3754,382.0396,135.0328,380.3822,129.6241,379.695,139.449" style="stroke: #000000; stroke-width: 0.5;"/><!--MD5=[32af1f96e7be935b61416928e469443b]
link users.services to auth--><path d="M328.14,163.796 C266.598,175.998 157.329,197.663 107.963,207.451 " fill="none" id="users.services-&gt;auth" style="stroke: #000000; stroke-width: 0.5;"/><polygon fill="#000000" points="102.8103,208.473,112.4166,210.6454,107.7147,207.5001,110.86,202.7983,102.8103,208.473" style="stroke: #000000; stroke-width: 0.5;"/><!--MD5=[4c1ceff7a00c31b7f396885c5d75f330]
link users.services to db.sql--><path d="M371.195,168.762 C369.182,189.986 365.325,230.667 363.131,253.8012 " fill="none" id="users.services-&gt;db.sql" style="stroke: #000000; stroke-width: 0.5;"/><polygon fill="#000000" points="362.637,259.0076,367.4691,250.4256,363.1092,254.0299,359.5048,249.6701,362.637,259.0076" style="stroke: #000000; stroke-width: 0.5;"/><!--MD5=[079d8a6bda13387d169cfa871e156721]
link users.services to dbConnection--><path d="M366.817,168.681 C359.491,184.971 345.412,212.206 326.5,230 C314.212,241.562 298.036,250.8256 283.684,257.6015 " fill="none" id="users.services-&gt;dbConnection" style="stroke: #000000; stroke-width: 0.5;"/><polygon fill="#000000" points="278.895,259.8038,288.743,259.676,283.4373,257.714,285.3993,252.4083,278.895,259.8038" style="stroke: #000000; stroke-width: 0.5;"/><!--MD5=[15cf610128d491f0682f9b3887eab99c]
link users.services to helpers--><path d="M385.952,168.336 C394.737,177.045 406.223,188.432 415.332,197.463 " fill="none" id="users.services-&gt;helpers" style="stroke: #000000; stroke-width: 0.5;"/><polygon fill="#000000" points="419.076,201.174,415.4996,191.9974,415.5248,197.6542,409.868,197.6794,419.076,201.174" style="stroke: #000000; stroke-width: 0.5;"/><script type="text/plantuml"><![CDATA[MD5=[ce5b6d6a342f647fe3cf1316d2b7b8fd]
@startuml

scale max 1920 width
top to bottom direction

skinparam nodesep 14
skinparam ranksep 28
skinparam monochrome true
skinparam shadowing false
skinparam defaultFontName Tahoma
skinparam defaultFontSize 12
skinparam roundCorner 6
skinparam dpi 150
skinparam arrowColor black
skinparam arrowThickness 0.5
skinparam packageTitleAlignment left

skinparam usecase {
  borderThickness 0.5
}

skinparam rectangle {
  borderThickness 0.5
}

skinparam component {
  borderThickness 1
}


(auth)
(bioinfo.controller)
(bioinfo.db.services)
(bioinfo.services)
(db.config)
(db.sql)
(dbConnection)
(error)
(helpers)
(<b>index</b>)
(routes)
(testConnection)
(url.config)
(user.controller)
(users.services)


(auth) --> (url.config)
(bioinfo.controller) --> (bioinfo.services)
(bioinfo.db.services) --> (db.sql)
(bioinfo.db.services) --> (dbConnection)
(bioinfo.services) --> (auth)
(bioinfo.services) --> (bioinfo.db.services)
(bioinfo.services) --> (url.config)
(dbConnection) --> (db.config)
(<b>index</b>) -[thickness=1]> (auth)
(<b>index</b>) -[thickness=1]> (error)
(<b>index</b>) -[thickness=1]> (routes)
(<b>index</b>) -[thickness=1]> (testConnection)
(<b>index</b>) -[thickness=1]> (url.config)
(routes) --> (bioinfo.controller)
(routes) --> (url.config)
(routes) --> (user.controller)
(testConnection) --> (dbConnection)
(user.controller) --> (users.services)
(users.services) --> (auth)
(users.services) --> (db.sql)
(users.services) --> (dbConnection)
(users.services) --> (helpers)

@enduml


' View and edit on https://arkit.pro
]]></script></g></svg>