<?xml version="1.0" encoding="UTF-8" standalone="no"?><svg xmlns="http://www.w3.org/2000/svg" xmlns:xlink="http://www.w3.org/1999/xlink" contentScriptType="application/ecmascript" contentStyleType="text/css" height="465px" preserveAspectRatio="none" style="width:932px;height:465px;" version="1.1" viewBox="0 0 932 465" width="932px" zoomAndPan="magnify"><defs/><g><ellipse cx="393.4423" cy="77.8885" fill="#F8F8F8" rx="52.4423" ry="12.8885" style="stroke: #383838; stroke-width: 0.5;"/><text fill="#000000" font-family="Tahoma, sans-serif" font-size="12" lengthAdjust="spacingAndGlyphs" textLength="70" x="358.4423" y="81.3728">AminoAcids</text><ellipse cx="66.4706" cy="323.8774" fill="#F8F8F8" rx="19.9706" ry="12.8774" style="stroke: #383838; stroke-width: 0.5;"/><text fill="#000000" font-family="Tahoma, sans-serif" font-size="12" lengthAdjust="spacingAndGlyphs" textLength="24" x="54.4706" y="327.3618">App</text><ellipse cx="66.6095" cy="238.8219" fill="#F8F8F8" rx="54.6095" ry="13.3219" style="stroke: #383838; stroke-width: 0.5;"/><text fill="#000000" font-family="Tahoma, sans-serif" font-size="12" lengthAdjust="spacingAndGlyphs" textLength="76" x="28.6095" y="242.3063">auth-header</text><ellipse cx="66.3567" cy="149.9713" fill="#F8F8F8" rx="60.3567" ry="14.4713" style="stroke: #383838; stroke-width: 0.5;"/><text fill="#000000" font-family="Tahoma, sans-serif" font-size="12" font-weight="bold" lengthAdjust="spacingAndGlyphs" textLength="91" x="20.8567" y="153.4557">auth.service</text><ellipse cx="575.7975" cy="273.9595" fill="#F8F8F8" rx="52.7975" ry="12.9595" style="stroke: #383838; stroke-width: 0.5;"/><text fill="#000000" font-family="Tahoma, sans-serif" font-size="12" lengthAdjust="spacingAndGlyphs" textLength="71" x="540.2975" y="277.4439">bioInfoData</text><ellipse cx="220.7541" cy="175.0508" fill="#F8F8F8" rx="60.7541" ry="14.5508" style="stroke: #383838; stroke-width: 0.5;"/><text fill="#000000" font-family="Tahoma, sans-serif" font-size="12" lengthAdjust="spacingAndGlyphs" textLength="92" x="174.7541" y="178.5352">CustomAppBar</text><ellipse cx="221.0833" cy="218.8774" fill="#F8F8F8" rx="51.0833" ry="12.8774" style="stroke: #383838; stroke-width: 0.5;"/><text fill="#000000" font-family="Tahoma, sans-serif" font-size="12" lengthAdjust="spacingAndGlyphs" textLength="68" x="187.0833" y="222.3618">Dashboard</text><ellipse cx="393.5549" cy="219.111" fill="#F8F8F8" rx="78.5549" ry="18.111" style="stroke: #383838; stroke-width: 0.5;"/><text fill="#000000" font-family="Tahoma, sans-serif" font-size="12" lengthAdjust="spacingAndGlyphs" textLength="134" x="326.5549" y="222.5953">FloatingActionButtons</text><ellipse cx="393.5993" cy="121.1199" fill="#F8F8F8" rx="56.0993" ry="13.6199" style="stroke: #383838; stroke-width: 0.5;"/><text fill="#000000" font-family="Tahoma, sans-serif" font-size="12" lengthAdjust="spacingAndGlyphs" textLength="80" x="353.5993" y="124.6042">ForContainer</text><ellipse cx="575.8762" cy="189.8774" fill="#F8F8F8" rx="50.3762" ry="12.8774" style="stroke: #383838; stroke-width: 0.5;"/><text fill="#000000" font-family="Tahoma, sans-serif" font-size="12" lengthAdjust="spacingAndGlyphs" textLength="67" x="542.3762" y="193.3618">HelpDialog</text><ellipse cx="220.9558" cy="281.8774" fill="#F8F8F8" rx="28.4558" ry="12.8774" style="stroke: #383838; stroke-width: 0.5;"/><text fill="#000000" font-family="Tahoma, sans-serif" font-size="12" lengthAdjust="spacingAndGlyphs" textLength="36" x="202.9558" y="285.3618">Home</text><ellipse cx="66.5772" cy="281.8774" fill="#F8F8F8" rx="30.5772" ry="12.8774" style="stroke: #383838; stroke-width: 0.5;"/><text fill="#000000" font-family="Tahoma, sans-serif" font-size="12" font-weight="bold" lengthAdjust="spacingAndGlyphs" textLength="39" x="47.0772" y="285.3618">index</text><ellipse cx="66.5563" cy="105.8774" fill="#F8F8F8" rx="18.5563" ry="12.8774" style="stroke: #383838; stroke-width: 0.5;"/><text fill="#000000" font-family="Tahoma, sans-serif" font-size="12" font-weight="bold" lengthAdjust="spacingAndGlyphs" textLength="22" x="55.5563" y="109.3618">jwt</text><ellipse cx="221.1274" cy="323.8774" fill="#F8F8F8" rx="25.6274" ry="12.8774" style="stroke: #383838; stroke-width: 0.5;"/><text fill="#000000" font-family="Tahoma, sans-serif" font-size="12" lengthAdjust="spacingAndGlyphs" textLength="32" x="205.1274" y="327.3618">Login</text><ellipse cx="873.2548" cy="308.8774" fill="#F8F8F8" rx="48.2548" ry="12.8774" style="stroke: #383838; stroke-width: 0.5;"/><text fill="#000000" font-family="Tahoma, sans-serif" font-size="12" lengthAdjust="spacingAndGlyphs" textLength="64" x="841.2548" y="312.3618">navigation</text><ellipse cx="576.1307" cy="320.1261" fill="#F8F8F8" rx="71.1307" ry="16.6261" style="stroke: #383838; stroke-width: 0.5;"/><text fill="#000000" font-family="Tahoma, sans-serif" font-size="12" lengthAdjust="spacingAndGlyphs" textLength="117" x="517.6307" y="323.6105">predictedStructure</text><ellipse cx="736.0993" cy="308.1199" fill="#F8F8F8" rx="56.0993" ry="13.6199" style="stroke: #383838; stroke-width: 0.5;"/><text fill="#000000" font-family="Tahoma, sans-serif" font-size="12" lengthAdjust="spacingAndGlyphs" textLength="80" x="696.0993" y="311.6042">restAPICaller</text><ellipse cx="393.5477" cy="167.8774" fill="#F8F8F8" rx="47.5477" ry="12.8774" style="stroke: #383838; stroke-width: 0.5;"/><text fill="#000000" font-family="Tahoma, sans-serif" font-size="12" lengthAdjust="spacingAndGlyphs" textLength="63" x="362.0477" y="171.3618">RNAInputs</text><ellipse cx="220.8777" cy="400.1755" fill="#F8F8F8" rx="53.8777" ry="13.1755" style="stroke: #383838; stroke-width: 0.5;"/><text fill="#000000" font-family="Tahoma, sans-serif" font-size="12" lengthAdjust="spacingAndGlyphs" textLength="74" x="183.8777" y="403.6599">RNAThemes</text><ellipse cx="393.5122" cy="20.8774" fill="#F8F8F8" rx="44.0122" ry="12.8774" style="stroke: #383838; stroke-width: 0.5;"/><text fill="#000000" font-family="Tahoma, sans-serif" font-size="12" lengthAdjust="spacingAndGlyphs" textLength="58" x="364.5122" y="24.3618">SeqChart</text><ellipse cx="220.9914" cy="441.8774" fill="#F8F8F8" rx="31.9914" ry="12.8774" style="stroke: #383838; stroke-width: 0.5;"/><text fill="#000000" font-family="Tahoma, sans-serif" font-size="12" lengthAdjust="spacingAndGlyphs" textLength="41" x="200.4914" y="445.3618">Signup</text><ellipse cx="576.0269" cy="79.8774" fill="#F8F8F8" rx="35.5269" ry="12.8774" style="stroke: #383838; stroke-width: 0.5;"/><text fill="#000000" font-family="Tahoma, sans-serif" font-size="12" lengthAdjust="spacingAndGlyphs" textLength="46" x="553.0269" y="83.3618">Spinner</text><ellipse cx="575.9264" cy="231.8774" fill="#F8F8F8" rx="45.4264" ry="12.8774" style="stroke: #383838; stroke-width: 0.5;"/><text fill="#000000" font-family="Tahoma, sans-serif" font-size="12" lengthAdjust="spacingAndGlyphs" textLength="60" x="545.9264" y="235.3618">TestRNAs</text><ellipse cx="735.8848" cy="134.8774" fill="#F8F8F8" rx="21.3848" ry="12.8774" style="stroke: #383838; stroke-width: 0.5;"/><text fill="#000000" font-family="Tahoma, sans-serif" font-size="12" lengthAdjust="spacingAndGlyphs" textLength="26" x="722.8848" y="138.3618">Title</text><ellipse cx="66.4608" cy="194.8922" fill="#F8F8F8" rx="59.9608" ry="14.3922" style="stroke: #383838; stroke-width: 0.5;"/><text fill="#000000" font-family="Tahoma, sans-serif" font-size="12" font-weight="bold" lengthAdjust="spacingAndGlyphs" textLength="90" x="21.4608" y="198.3765">user.service</text><!--MD5=[2b9746dda8e72e897682cf945a3b0359]
link AminoAcids to Spinner--><path d="M446.224,78.573 C474.547,78.887 509.101,79.27 535.283,79.56 " fill="none" id="AminoAcids-&gt;Spinner" style="stroke: #000000; stroke-width: 0.5;"/><polygon fill="#000000" points="540.403,79.617,531.4481,75.517,535.4033,79.5613,531.359,83.5165,540.403,79.617" style="stroke: #000000; stroke-width: 0.5;"/><!--MD5=[1111f48a901fc7a223a44d783d0185b1]
link AminoAcids to Title--><path d="M425.593,67.523 C474.443,52.83 571.395,30.871 647,59 C679.189,70.976 707.46,100.601 722.804,119.127 " fill="none" id="AminoAcids-&gt;Title" style="stroke: #000000; stroke-width: 0.5;"/><polygon fill="#000000" points="726.06,123.127,723.4788,113.6224,722.9028,119.2498,717.2754,118.6738,726.06,123.127" style="stroke: #000000; stroke-width: 0.5;"/><!--MD5=[3e48b1d688efe071a5226271f92d401c]
link App to CustomAppBar--><path d="M86.2374,321.82 C99.3097,319.352 116.27,314.11 127,303 C160.983,267.814 126.491,233.638 160,198 C163.803,193.955 168.395,190.614 173.325,187.856 " fill="none" id="App-&gt;CustomAppBar" style="stroke: #000000; stroke-width: 0.5;"/><polygon fill="#000000" points="177.935,185.483,168.1021,186.0433,173.4889,187.7704,171.7619,193.1571,177.935,185.483" style="stroke: #000000; stroke-width: 0.5;"/><!--MD5=[4b0e56519ac2e930999a79efa42d8364]
link App to Dashboard--><path d="M85.9402,320.343 C98.3845,317.223 114.715,311.809 127,303 C146.292,289.167 142.757,277.316 160,261 C170.763,250.816 184.159,241.201 195.562,233.747 " fill="none" id="App-&gt;Dashboard" style="stroke: #000000; stroke-width: 0.5;"/><polygon fill="#000000" points="199.987,230.896,190.2547,232.4068,195.7835,233.6035,194.5868,239.1324,199.987,230.896" style="stroke: #000000; stroke-width: 0.5;"/><!--MD5=[72001ba73a07f29f1e30ec17f7d5d965]
link App to Home--><path d="M85.2921,319.1 C111.395,311.911 160.341,298.431 191.494,289.851 " fill="none" id="App-&gt;Home" style="stroke: #000000; stroke-width: 0.5;"/><polygon fill="#000000" points="196.335,288.517,186.5961,287.0497,191.5144,289.8443,188.7198,294.7626,196.335,288.517" style="stroke: #000000; stroke-width: 0.5;"/><!--MD5=[c12c7b4f4f89bf532c65e21e4ffcf9c3]
link App to Login--><path d="M86.5059,324 C112.546,324 159.576,324 190.29,324 " fill="none" id="App-&gt;Login" style="stroke: #000000; stroke-width: 0.5;"/><polygon fill="#000000" points="195.45,324,186.45,320,190.45,324,186.45,328,195.45,324" style="stroke: #000000; stroke-width: 0.5;"/><!--MD5=[f36bba88d565caf1792a3c2df5b67db7]
link App to navigation--><path d="M85.0832,328.822 C103.5813,333.699 133.614,341.063 160,345 C262.475,360.2901 288.891,362 392.5,362 C392.5,362 392.5,362 577,362 C671.357,362 780.038,335.495 835.597,319.972 " fill="none" id="App-&gt;navigation" style="stroke: #000000; stroke-width: 0.5;"/><polygon fill="#000000" points="840.48,318.598,830.733,317.1854,835.6669,319.9523,832.8999,324.8863,840.48,318.598" style="stroke: #000000; stroke-width: 0.5;"/><!--MD5=[4f506dcac622138f398aca5a7d28c338]
link App to RNAThemes--><path d="M81.9793,332.629 C99.9713,343.2 131.754,361.379 160,375 C168.576,379.1358 178.017,383.2611 186.821,386.9336 " fill="none" id="App-&gt;RNAThemes" style="stroke: #000000; stroke-width: 0.5;"/><polygon fill="#000000" points="191.637,388.9244,184.8494,381.788,187.0167,387.0132,181.7915,389.1805,191.637,388.9244" style="stroke: #000000; stroke-width: 0.5;"/><!--MD5=[49aa87b71b458cfe7ee5caf488b0c2d5]
link App to Signup--><path d="M75.8308,335.876 C90.5842,356.0889 123.238,397.2855 160,421 C168.529,426.502 178.674,430.7611 188.173,433.9603 " fill="none" id="App-&gt;Signup" style="stroke: #000000; stroke-width: 0.5;"/><polygon fill="#000000" points="193.069,435.5376,185.7287,428.971,188.3098,434.0047,183.2761,436.5858,193.069,435.5376" style="stroke: #000000; stroke-width: 0.5;"/><!--MD5=[db55674ba3a42a55ad798890dd80e596]
link bioInfoData to restAPICaller--><path d="M616.463,282.492 C638.301,287.191 665.572,293.06 688.448,297.983 " fill="none" id="bioInfoData-&gt;restAPICaller" style="stroke: #000000; stroke-width: 0.5;"/><polygon fill="#000000" points="693.559,299.082,685.6016,293.2785,688.6708,298.0304,683.919,301.0996,693.559,299.082" style="stroke: #000000; stroke-width: 0.5;"/><!--MD5=[fc2d44cc64900332c93141953dcc2c0d]
link Dashboard to AminoAcids--><path d="M260.551,210.626 C268.44,207.434 276.118,203.041 282,197 C314.062,164.072 281.539,130.505 315,99 C322.001,92.409 330.855,87.845 340.056,84.694 " fill="none" id="Dashboard-&gt;AminoAcids" style="stroke: #000000; stroke-width: 0.5;"/><polygon fill="#000000" points="344.891,83.172,335.1056,82.0561,340.1213,84.6719,337.5054,89.6876,344.891,83.172" style="stroke: #000000; stroke-width: 0.5;"/><!--MD5=[b9f79b04ee98199f31573ff06a191874]
link Dashboard to bioInfoData--><path d="M253.548,229.189 C271.411,234.611 294.264,240.972 315,245 C384.756,258.549 466.359,266.369 519.275,270.401 " fill="none" id="Dashboard-&gt;bioInfoData" style="stroke: #000000; stroke-width: 0.5;"/><polygon fill="#000000" points="524.305,270.78,515.6309,266.1152,519.3191,270.4044,515.0299,274.0926,524.305,270.78" style="stroke: #000000; stroke-width: 0.5;"/><!--MD5=[1d79b08f08b64bc1b289fb046091ae67]
link Dashboard to FloatingActionButtons--><path d="M272.233,219 C284.027,219 296.903,219 309.705,219 " fill="none" id="Dashboard-&gt;FloatingActionButtons" style="stroke: #000000; stroke-width: 0.5;"/><polygon fill="#000000" points="314.796,219,305.796,215,309.796,219,305.796,223,314.796,219" style="stroke: #000000; stroke-width: 0.5;"/><!--MD5=[e384d6cbf7e860e9f009d9ef191d9b79]
link Dashboard to ForContainer--><path d="M258.215,209.912 C266.57,206.722 275.04,202.508 282,197 C302.879,180.478 293.893,163.231 315,147 C323.878,140.173 334.647,135.084 345.297,131.311 " fill="none" id="Dashboard-&gt;ForContainer" style="stroke: #000000; stroke-width: 0.5;"/><polygon fill="#000000" points="350.175,129.668,340.3691,128.7494,345.4365,131.2637,342.9222,136.3311,350.175,129.668" style="stroke: #000000; stroke-width: 0.5;"/><!--MD5=[04a17b1db1ac8ecdf9380924cc7aa3a4]
link Dashboard to predictedStructure--><path d="M239.688,231.194 C257.805,243.116 287.177,260.905 315,271 C377.222,293.576 451.777,306.262 505.065,313.038 " fill="none" id="Dashboard-&gt;predictedStructure" style="stroke: #000000; stroke-width: 0.5;"/><polygon fill="#000000" points="510.154,313.676,501.7209,308.5885,505.1928,313.0546,500.7267,316.5265,510.154,313.676" style="stroke: #000000; stroke-width: 0.5;"/><!--MD5=[9949b7c492d7c77a75b2147e3688b190]
link Dashboard to RNAInputs--><path d="M254.874,209.167 C283.781,200.52 325.804,187.95 355.8,178.978 " fill="none" id="Dashboard-&gt;RNAInputs" style="stroke: #000000; stroke-width: 0.5;"/><polygon fill="#000000" points="360.88,177.458,351.1112,176.2051,356.0897,178.8909,353.4039,183.8695,360.88,177.458" style="stroke: #000000; stroke-width: 0.5;"/><!--MD5=[58321788fff82b64186b13735b8133f6]
link Dashboard to SeqChart--><path d="M261.289,210.895 C269.044,207.692 276.479,203.226 282,197 C324.413,149.168 274.619,106.559 315,57 C324.935,44.807 339.933,36.539 354.096,31.036 " fill="none" id="Dashboard-&gt;SeqChart" style="stroke: #000000; stroke-width: 0.5;"/><polygon fill="#000000" points="358.858,29.274,349.0293,28.6447,354.1685,31.0086,351.8047,36.1479,358.858,29.274" style="stroke: #000000; stroke-width: 0.5;"/><!--MD5=[8fa804006fbd7293c53aec0ac16ca062]
link FloatingActionButtons to HelpDialog--><path d="M458.138,208.776 C481.065,205.092 506.509,201.004 527.786,197.586 " fill="none" id="FloatingActionButtons-&gt;HelpDialog" style="stroke: #000000; stroke-width: 0.5;"/><polygon fill="#000000" points="532.82,196.777,523.2989,194.2573,527.8835,197.5712,524.5696,202.1558,532.82,196.777" style="stroke: #000000; stroke-width: 0.5;"/><!--MD5=[1b18aa54519edf918f9c8017aaf0449e]
link FloatingActionButtons to TestRNAs--><path d="M468.698,224.344 C488.084,225.74 508.491,227.21 526.185,228.484 " fill="none" id="FloatingActionButtons-&gt;TestRNAs" style="stroke: #000000; stroke-width: 0.5;"/><polygon fill="#000000" points="531.585,228.873,522.895,224.2379,526.5979,228.5144,522.3213,232.2173,531.585,228.873" style="stroke: #000000; stroke-width: 0.5;"/><!--MD5=[52d31155fc9daf52098dde4897166374]
link ForContainer to Spinner--><path d="M435.008,111.799 C466.646,104.612 510.145,94.732 540.22,87.9 " fill="none" id="ForContainer-&gt;Spinner" style="stroke: #000000; stroke-width: 0.5;"/><polygon fill="#000000" points="545.3,86.746,535.6372,84.8409,540.4244,87.8545,537.4108,92.6418,545.3,86.746" style="stroke: #000000; stroke-width: 0.5;"/><!--MD5=[80919abaead1dbc43c894f6bc4e9b790]
link ForContainer to Title--><path d="M448.83,123.234 C523.223,126.293 653.854,131.664 709.13,133.936 " fill="none" id="ForContainer-&gt;Title" style="stroke: #000000; stroke-width: 0.5;"/><polygon fill="#000000" points="714.239,134.146,705.4112,129.7791,709.2432,133.9403,705.082,137.7723,714.239,134.146" style="stroke: #000000; stroke-width: 0.5;"/><!--MD5=[18a763aa7c560dba8273df56d05c5681]
link HelpDialog to Title--><path d="M606.719,179.655 C637.182,169.05 683.925,152.779 711.779,143.083 " fill="none" id="HelpDialog-&gt;Title" style="stroke: #000000; stroke-width: 0.5;"/><polygon fill="#000000" points="716.752,141.352,706.9372,140.5336,712.03,142.996,709.5676,148.0888,716.752,141.352" style="stroke: #000000; stroke-width: 0.5;"/><!--MD5=[893f7b7637e22df589de0e5c7f34855e]
link <b>index</b> to App--><path d="M66.5,295.084 C66.5,298.538 66.5,301.993 66.5,305.447 " fill="none" id="&lt;b&gt;index&lt;/b&gt;-&gt;App" style="stroke: #000000; stroke-width: 1.0;"/><polygon fill="#000000" points="66.5,310.875,70.5,301.875,66.5,305.875,62.5,301.875,66.5,310.875" style="stroke: #000000; stroke-width: 1.0;"/><!--MD5=[940d4ca5295ec49520355ca05abb48fb]
link predictedStructure to restAPICaller--><path d="M644.006,314.911 C654.993,314.077 666.296,313.218 677.04,312.402 " fill="none" id="predictedStructure-&gt;restAPICaller" style="stroke: #000000; stroke-width: 0.5;"/><polygon fill="#000000" points="682.265,312.005,672.988,308.6979,677.2794,312.3836,673.5937,316.6749,682.265,312.005" style="stroke: #000000; stroke-width: 0.5;"/><!--MD5=[10bca6d434acd9d31bf4f2147cd829d3]
link RNAInputs to Title--><path d="M438.665,163.72 C510.805,156.728 651.656,143.077 709.386,137.482 " fill="none" id="RNAInputs-&gt;Title" style="stroke: #000000; stroke-width: 0.5;"/><polygon fill="#000000" points="714.382,136.998,705.0386,133.8833,709.4052,137.4795,705.8091,141.8462,714.382,136.998" style="stroke: #000000; stroke-width: 0.5;"/><!--MD5=[1fd2322a190f9ec15b37f5ddae8ca9ff]
link SeqChart to Title--><path d="M433.527,15.466 C485.157,9.974 577.706,6.581 647,40 C682.731,57.232 711.013,95.841 725.139,118.173 " fill="none" id="SeqChart-&gt;Title" style="stroke: #000000; stroke-width: 0.5;"/><polygon fill="#000000" points="727.937,122.677,726.5891,112.9208,725.3001,118.4288,719.7921,117.1398,727.937,122.677" style="stroke: #000000; stroke-width: 0.5;"/><!--MD5=[fdfb0a3513c94a32d9bfb5eb623e45e4]
link TestRNAs to navigation--><path d="M610.931,240.498 C653.339,251.161 728.121,270.102 792,287 C805.847,290.663 821.004,294.778 834.394,298.449 " fill="none" id="TestRNAs-&gt;navigation" style="stroke: #000000; stroke-width: 0.5;"/><polygon fill="#000000" points="839.242,299.78,831.6224,293.5397,834.4205,298.4561,829.5041,301.2542,839.242,299.78" style="stroke: #000000; stroke-width: 0.5;"/><!--MD5=[1cb4eafb4728e0dfea28d8be76539cdc]
link TestRNAs to Title--><path d="M613.056,224.308 C624.329,221.093 636.544,216.738 647,211 C676.779,194.658 705.432,166.962 721.572,149.9 " fill="none" id="TestRNAs-&gt;Title" style="stroke: #000000; stroke-width: 0.5;"/><polygon fill="#000000" points="725.014,146.221,715.9438,150.0591,721.5975,149.8717,721.7849,155.5255,725.014,146.221" style="stroke: #000000; stroke-width: 0.5;"/><!--MD5=[a2f802e8d461fb39ff81ae41d75706fd]
link <b>user.service</b> to auth-header--><path d="M66.5,209.652 C66.5,213.064 66.5,216.476 66.5,219.888 " fill="none" id="&lt;b&gt;user.service&lt;/b&gt;-&gt;auth-header" style="stroke: #000000; stroke-width: 1.0;"/><polygon fill="#000000" points="66.5,225.25,70.5,216.25,66.5,220.25,62.5,216.25,66.5,225.25" style="stroke: #000000; stroke-width: 1.0;"/><script type="text/plantuml"><![CDATA[MD5=[ea09f0371b949d4d555b86994601b6a3]
@startuml

scale max 1920 width
left to right direction

skinparam nodesep 16
skinparam ranksep 33
skinparam monochrome true
skinparam shadowing false
skinparam defaultFontName Tahoma
skinparam defaultFontSize 12
skinparam roundCorner 6
skinparam dpi 150
skinparam arrowColor black
skinparam arrowThickness 0.5
skinparam packageTitleAlignment left

skinparam usecase {
  borderThickness 0.5
}

skinparam rectangle {
  borderThickness 0.5
}

skinparam component {
  borderThickness 1
}


(AminoAcids)
(App)
(auth-header)
(<b>auth.service</b>)
(bioInfoData)
(CustomAppBar)
(Dashboard)
(FloatingActionButtons)
(ForContainer)
(HelpDialog)
(Home)
(<b>index</b>)
(<b>jwt</b>)
(Login)
(navigation)
(predictedStructure)
(restAPICaller)
(RNAInputs)
(RNAThemes)
(SeqChart)
(Signup)
(Spinner)
(TestRNAs)
(Title)
(<b>user.service</b>)


(AminoAcids) --> (Spinner)
(AminoAcids) --> (Title)
(App) --> (CustomAppBar)
(App) --> (Dashboard)
(App) --> (Home)
(App) --> (Login)
(App) --> (navigation)
(App) --> (RNAThemes)
(App) --> (Signup)
(bioInfoData) --> (restAPICaller)
(Dashboard) --> (AminoAcids)
(Dashboard) ---> (bioInfoData)
(Dashboard) --> (FloatingActionButtons)
(Dashboard) --> (ForContainer)
(Dashboard) ---> (predictedStructure)
(Dashboard) --> (RNAInputs)
(Dashboard) --> (SeqChart)
(FloatingActionButtons) --> (HelpDialog)
(FloatingActionButtons) --> (TestRNAs)
(ForContainer) --> (Spinner)
(ForContainer) --> (Title)
(HelpDialog) --> (Title)
(<b>index</b>) -[thickness=1]> (App)
(predictedStructure) --> (restAPICaller)
(RNAInputs) --> (Title)
(SeqChart) --> (Title)
(TestRNAs) ---> (navigation)
(TestRNAs) --> (Title)
(<b>user.service</b>) -[thickness=1]> (auth-header)

@enduml


' View and edit on https://arkit.pro
]]></script></g></svg>