<?xml version="1.0" encoding="UTF-8" standalone="no"?><svg xmlns="http://www.w3.org/2000/svg" xmlns:xlink="http://www.w3.org/1999/xlink" contentScriptType="application/ecmascript" contentStyleType="text/css" height="746px" preserveAspectRatio="none" style="width:1020px;height:746px;" version="1.1" viewBox="0 0 1020 746" width="1020px" zoomAndPan="magnify"><defs/><g><ellipse cx="388.4423" cy="190.8885" fill="#F8F8F8" rx="52.4423" ry="12.8885" style="stroke: #383838; stroke-width: 0.5;"/><text fill="#000000" font-family="Tahoma, sans-serif" font-size="12" lengthAdjust="spacingAndGlyphs" textLength="70" x="353.4423" y="194.3728">AminoAcids</text><ellipse cx="66.4706" cy="529.8774" fill="#F8F8F8" rx="19.9706" ry="12.8774" style="stroke: #383838; stroke-width: 0.5;"/><text fill="#000000" font-family="Tahoma, sans-serif" font-size="12" lengthAdjust="spacingAndGlyphs" textLength="24" x="54.4706" y="533.3618">App</text><ellipse cx="754.4213" cy="52.7843" fill="#F8F8F8" rx="69.4213" ry="16.2843" style="stroke: #383838; stroke-width: 0.5;"/><text fill="#000000" font-family="Tahoma, sans-serif" font-size="12" lengthAdjust="spacingAndGlyphs" textLength="113" x="697.9213" y="56.2686">app-route-handler</text><ellipse cx="66.6095" cy="440.8219" fill="#F8F8F8" rx="54.6095" ry="13.3219" style="stroke: #383838; stroke-width: 0.5;"/><text fill="#000000" font-family="Tahoma, sans-serif" font-size="12" lengthAdjust="spacingAndGlyphs" textLength="76" x="28.6095" y="444.3063">auth-header</text><ellipse cx="66.3567" cy="347.9713" fill="#F8F8F8" rx="60.3567" ry="14.4713" style="stroke: #383838; stroke-width: 0.5;"/><text fill="#000000" font-family="Tahoma, sans-serif" font-size="12" font-weight="bold" lengthAdjust="spacingAndGlyphs" textLength="91" x="20.8567" y="351.4557">auth.service</text><ellipse cx="934.5946" cy="52.8189" fill="#F8F8F8" rx="74.5946" ry="17.3189" style="stroke: #383838; stroke-width: 0.5;"/><text fill="#000000" font-family="Tahoma, sans-serif" font-size="12" lengthAdjust="spacingAndGlyphs" textLength="125" x="872.0946" y="56.3033">authenticationToken</text><ellipse cx="754.6335" cy="676.8774" fill="#F8F8F8" rx="46.1335" ry="12.8774" style="stroke: #383838; stroke-width: 0.5;"/><text fill="#000000" font-family="Tahoma, sans-serif" font-size="12" lengthAdjust="spacingAndGlyphs" textLength="61" x="724.1335" y="680.3618">constants</text><ellipse cx="223.7541" cy="576.0508" fill="#F8F8F8" rx="60.7541" ry="14.5508" style="stroke: #383838; stroke-width: 0.5;"/><text fill="#000000" font-family="Tahoma, sans-serif" font-size="12" lengthAdjust="spacingAndGlyphs" textLength="92" x="177.7541" y="579.5352">CustomAppBar</text><ellipse cx="224.0833" cy="318.8774" fill="#F8F8F8" rx="51.0833" ry="12.8774" style="stroke: #383838; stroke-width: 0.5;"/><text fill="#000000" font-family="Tahoma, sans-serif" font-size="12" lengthAdjust="spacingAndGlyphs" textLength="68" x="190.0833" y="322.3618">Dashboard</text><ellipse cx="223.9914" cy="621.8774" fill="#F8F8F8" rx="31.9914" ry="12.8774" style="stroke: #383838; stroke-width: 0.5;"/><text fill="#000000" font-family="Tahoma, sans-serif" font-size="12" lengthAdjust="spacingAndGlyphs" textLength="41" x="203.4914" y="625.3618">Footer</text><ellipse cx="388.5993" cy="274.1199" fill="#F8F8F8" rx="56.0993" ry="13.6199" style="stroke: #383838; stroke-width: 0.5;"/><text fill="#000000" font-family="Tahoma, sans-serif" font-size="12" lengthAdjust="spacingAndGlyphs" textLength="80" x="348.5993" y="277.6042">ForContainer</text><ellipse cx="66.6482" cy="301.8774" fill="#F8F8F8" rx="37.6482" ry="12.8774" style="stroke: #383838; stroke-width: 0.5;"/><text fill="#000000" font-family="Tahoma, sans-serif" font-size="12" font-weight="bold" lengthAdjust="spacingAndGlyphs" textLength="49" x="42.1482" y="305.3618">fornac</text><ellipse cx="570.5549" cy="630.111" fill="#F8F8F8" rx="78.5549" ry="18.111" style="stroke: #383838; stroke-width: 0.5;"/><text fill="#000000" font-family="Tahoma, sans-serif" font-size="12" lengthAdjust="spacingAndGlyphs" textLength="134" x="503.5549" y="633.5953">getRNASequencesAPI</text><ellipse cx="570.3762" cy="169.8774" fill="#F8F8F8" rx="50.3762" ry="12.8774" style="stroke: #383838; stroke-width: 0.5;"/><text fill="#000000" font-family="Tahoma, sans-serif" font-size="12" lengthAdjust="spacingAndGlyphs" textLength="67" x="536.8762" y="173.3618">HelpDialog</text><ellipse cx="223.9558" cy="665.8774" fill="#F8F8F8" rx="28.4558" ry="12.8774" style="stroke: #383838; stroke-width: 0.5;"/><text fill="#000000" font-family="Tahoma, sans-serif" font-size="12" lengthAdjust="spacingAndGlyphs" textLength="36" x="205.9558" y="669.3618">Home</text><ellipse cx="570.5061" cy="678.8774" fill="#F8F8F8" rx="23.5061" ry="12.8774" style="stroke: #383838; stroke-width: 0.5;"/><text fill="#000000" font-family="Tahoma, sans-serif" font-size="12" lengthAdjust="spacingAndGlyphs" textLength="29" x="556.0061" y="682.3618">login</text><ellipse cx="224.1274" cy="485.8774" fill="#F8F8F8" rx="25.6274" ry="12.8774" style="stroke: #383838; stroke-width: 0.5;"/><text fill="#000000" font-family="Tahoma, sans-serif" font-size="12" lengthAdjust="spacingAndGlyphs" textLength="32" x="208.1274" y="489.3618">Login</text><ellipse cx="754.2548" cy="100.8774" fill="#F8F8F8" rx="48.2548" ry="12.8774" style="stroke: #383838; stroke-width: 0.5;"/><text fill="#000000" font-family="Tahoma, sans-serif" font-size="12" lengthAdjust="spacingAndGlyphs" textLength="64" x="722.2548" y="104.3618">navigation</text><ellipse cx="754.5993" cy="630.1199" fill="#F8F8F8" rx="56.0993" ry="13.6199" style="stroke: #383838; stroke-width: 0.5;"/><text fill="#000000" font-family="Tahoma, sans-serif" font-size="12" lengthAdjust="spacingAndGlyphs" textLength="80" x="714.5993" y="633.6042">restAPICaller</text><ellipse cx="388.5477" cy="412.8774" fill="#F8F8F8" rx="47.5477" ry="12.8774" style="stroke: #383838; stroke-width: 0.5;"/><text fill="#000000" font-family="Tahoma, sans-serif" font-size="12" lengthAdjust="spacingAndGlyphs" textLength="63" x="357.0477" y="416.3618">RNAInputs</text><ellipse cx="223.8777" cy="710.1755" fill="#F8F8F8" rx="53.8777" ry="13.1755" style="stroke: #383838; stroke-width: 0.5;"/><text fill="#000000" font-family="Tahoma, sans-serif" font-size="12" lengthAdjust="spacingAndGlyphs" textLength="74" x="186.8777" y="713.6599">RNAThemes</text><ellipse cx="570.6118" cy="576.0224" fill="#F8F8F8" rx="78.1118" ry="18.0224" style="stroke: #383838; stroke-width: 0.5;"/><text fill="#000000" font-family="Tahoma, sans-serif" font-size="12" lengthAdjust="spacingAndGlyphs" textLength="133" x="504.1118" y="579.5067">saveBioInfoDataToDB</text><ellipse cx="388.5122" cy="318.8774" fill="#F8F8F8" rx="44.0122" ry="12.8774" style="stroke: #383838; stroke-width: 0.5;"/><text fill="#000000" font-family="Tahoma, sans-serif" font-size="12" lengthAdjust="spacingAndGlyphs" textLength="58" x="359.5122" y="322.3618">SeqChart</text><ellipse cx="570.6985" cy="722.8774" fill="#F8F8F8" rx="32.6985" ry="12.8774" style="stroke: #383838; stroke-width: 0.5;"/><text fill="#000000" font-family="Tahoma, sans-serif" font-size="12" lengthAdjust="spacingAndGlyphs" textLength="42" x="549.6985" y="726.3618">signUp</text><ellipse cx="223.9914" cy="529.8774" fill="#F8F8F8" rx="31.9914" ry="12.8774" style="stroke: #383838; stroke-width: 0.5;"/><text fill="#000000" font-family="Tahoma, sans-serif" font-size="12" lengthAdjust="spacingAndGlyphs" textLength="41" x="203.4914" y="533.3618">Signup</text><ellipse cx="570.5269" cy="251.8774" fill="#F8F8F8" rx="35.5269" ry="12.8774" style="stroke: #383838; stroke-width: 0.5;"/><text fill="#000000" font-family="Tahoma, sans-serif" font-size="12" lengthAdjust="spacingAndGlyphs" textLength="46" x="547.5269" y="255.3618">Spinner</text><ellipse cx="66.2635" cy="485.8774" fill="#F8F8F8" rx="19.2635" ry="12.8774" style="stroke: #383838; stroke-width: 0.5;"/><text fill="#000000" font-family="Tahoma, sans-serif" font-size="12" font-weight="bold" lengthAdjust="spacingAndGlyphs" textLength="23" x="54.7635" y="489.3618">src</text><ellipse cx="388.4264" cy="108.8774" fill="#F8F8F8" rx="45.4264" ry="12.8774" style="stroke: #383838; stroke-width: 0.5;"/><text fill="#000000" font-family="Tahoma, sans-serif" font-size="12" lengthAdjust="spacingAndGlyphs" textLength="60" x="358.4264" y="112.3618">TestRNAs</text><ellipse cx="754.3848" cy="311.8774" fill="#F8F8F8" rx="21.3848" ry="12.8774" style="stroke: #383838; stroke-width: 0.5;"/><text fill="#000000" font-family="Tahoma, sans-serif" font-size="12" lengthAdjust="spacingAndGlyphs" textLength="26" x="741.3848" y="315.3618">Title</text><ellipse cx="66.4608" cy="394.8922" fill="#F8F8F8" rx="59.9608" ry="14.3922" style="stroke: #383838; stroke-width: 0.5;"/><text fill="#000000" font-family="Tahoma, sans-serif" font-size="12" font-weight="bold" lengthAdjust="spacingAndGlyphs" textLength="90" x="21.4608" y="398.3765">user.service</text><ellipse cx="388.3081" cy="365.8616" fill="#F8F8F8" rx="67.3081" ry="15.8616" style="stroke: #383838; stroke-width: 0.5;"/><text fill="#000000" font-family="Tahoma, sans-serif" font-size="12" lengthAdjust="spacingAndGlyphs" textLength="108" x="334.3081" y="369.346">UsersSavedRNAs</text><!--MD5=[2b9746dda8e72e897682cf945a3b0359]
link AminoAcids to Spinner--><path d="M420.443,201.486 C453.551,212.706 505.75,230.396 538.774,241.587 " fill="none" id="AminoAcids-&gt;Spinner" style="stroke: #000000; stroke-width: 0.5;"/><polygon fill="#000000" points="543.904,243.326,536.6632,236.6498,539.1684,241.7217,534.0964,244.2268,543.904,243.326" style="stroke: #000000; stroke-width: 0.5;"/><!--MD5=[1111f48a901fc7a223a44d783d0185b1]
link AminoAcids to Title--><path d="M441.358,191.089 C495.316,192.914 581.232,200.767 649,230 C685.924,245.928 721.031,278.203 739.665,297.165 " fill="none" id="AminoAcids-&gt;Title" style="stroke: #000000; stroke-width: 0.5;"/><polygon fill="#000000" points="743.167,300.771,739.7655,291.5282,739.6833,297.1844,734.027,297.1021,743.167,300.771" style="stroke: #000000; stroke-width: 0.5;"/><!--MD5=[9e5f6eadca0db3b0193a2b9883ab5048]
link App to app-route-handler--><path d="M86.4462,527.956 C99.797,525.486 117.011,520.033 127,508 C187.762,434.8 125.341,384.362 163,297 C209.237,189.741 218.617,143.213 321,87 C439.46,21.96 604.326,31.389 692.357,42.848 " fill="none" id="App-&gt;app-route-handler" style="stroke: #000000; stroke-width: 0.5;"/><polygon fill="#000000" points="697.525,43.535,689.1304,38.3843,692.5686,42.8763,688.0765,46.3145,697.525,43.535" style="stroke: #000000; stroke-width: 0.5;"/><!--MD5=[3d611c7b60336bda32a2e7f4f9638ccb]
link App to authenticationToken--><path d="M86.3663,528.171 C99.8586,525.808 117.286,520.396 127,508 C214.733,396.044 96.9659,315.979 163,190 C222.632,76.234 259.053,8 387.5,8 C387.5,8 387.5,8 571.5,8 C684.039,8 712.794,9.724 824,27 C842.531,29.879 862.558,34.253 880.354,38.598 " fill="none" id="App-&gt;authenticationToken" style="stroke: #000000; stroke-width: 0.5;"/><polygon fill="#000000" points="885.312,39.821,877.5316,33.7824,880.4574,38.6238,875.616,41.5497,885.312,39.821" style="stroke: #000000; stroke-width: 0.5;"/><!--MD5=[3e48b1d688efe071a5226271f92d401c]
link App to CustomAppBar--><path d="M85.0356,535.187 C107.956,541.968 148.864,554.069 180.203,563.34 " fill="none" id="App-&gt;CustomAppBar" style="stroke: #000000; stroke-width: 0.5;"/><polygon fill="#000000" points="185.147,564.802,177.6518,558.4128,180.3525,563.3834,175.3819,566.0841,185.147,564.802" style="stroke: #000000; stroke-width: 0.5;"/><!--MD5=[4b0e56519ac2e930999a79efa42d8364]
link App to Dashboard--><path d="M85.9856,526.858 C98.7694,523.872 115.485,518.253 127,508 C154.865,483.189 198.811,379.12 215.886,336.905 " fill="none" id="App-&gt;Dashboard" style="stroke: #000000; stroke-width: 0.5;"/><polygon fill="#000000" points="217.832,332.073,210.7581,338.9257,215.9632,336.7106,218.1783,341.9158,217.832,332.073" style="stroke: #000000; stroke-width: 0.5;"/><!--MD5=[3e37014f0fe07ef945e2e321d42e176e]
link App to Footer--><path d="M79.1299,540.224 C96.4219,555.015 130.386,582.521 163,600 C172.412,605.044 183.228,609.406 193.062,612.884 " fill="none" id="App-&gt;Footer" style="stroke: #000000; stroke-width: 0.5;"/><polygon fill="#000000" points="197.801,614.52,190.599,607.802,193.0747,612.8884,187.9884,615.3641,197.801,614.52" style="stroke: #000000; stroke-width: 0.5;"/><!--MD5=[72001ba73a07f29f1e30ec17f7d5d965]
link App to Home--><path d="M74.5966,542.109 C88.6524,565.106 122.227,615.354 163,644 C172.05,650.3583 183.15,655.1007 193.331,658.5215 " fill="none" id="App-&gt;Home" style="stroke: #000000; stroke-width: 0.5;"/><polygon fill="#000000" points="198.242,660.0959,190.8937,653.5383,193.4809,658.5688,188.4504,661.156,198.242,660.0959" style="stroke: #000000; stroke-width: 0.5;"/><!--MD5=[c12c7b4f4f89bf532c65e21e4ffcf9c3]
link App to Login--><path d="M85.0356,525.038 C112.178,517.358 164.545,502.54 196.376,493.533 " fill="none" id="App-&gt;Login" style="stroke: #000000; stroke-width: 0.5;"/><polygon fill="#000000" points="201.302,492.14,191.5529,490.7415,196.4909,493.5013,193.7311,498.4393,201.302,492.14" style="stroke: #000000; stroke-width: 0.5;"/><!--MD5=[4f506dcac622138f398aca5a7d28c338]
link App to RNAThemes--><path d="M71.7857,542.628 C82.4614,572.255 113.036,646.8232 163,688 C168.254,692.3296 174.436,695.8476 180.799,698.6943 " fill="none" id="App-&gt;RNAThemes" style="stroke: #000000; stroke-width: 0.5;"/><polygon fill="#000000" points="185.689,700.7427,178.9329,693.5764,181.0772,698.8112,175.8424,700.9554,185.689,700.7427" style="stroke: #000000; stroke-width: 0.5;"/><!--MD5=[49aa87b71b458cfe7ee5caf488b0c2d5]
link App to Signup--><path d="M86.5674,530 C111.407,530 155.35,530 186.653,530 " fill="none" id="App-&gt;Signup" style="stroke: #000000; stroke-width: 0.5;"/><polygon fill="#000000" points="191.953,530,182.953,526,186.953,530,182.953,534,191.953,530" style="stroke: #000000; stroke-width: 0.5;"/><!--MD5=[ce991c862178461ca715bae06be61515]
link app-route-handler to authenticationToken--><path d="M824.065,53 C834.165,53 844.635,53 854.918,53 " fill="none" id="app-route-handler-&gt;authenticationToken" style="stroke: #000000; stroke-width: 0.5;"/><polygon fill="#000000" points="859.948,53,850.948,49,854.948,53,850.948,57,859.948,53" style="stroke: #000000; stroke-width: 0.5;"/><!--MD5=[fc2d44cc64900332c93141953dcc2c0d]
link Dashboard to AminoAcids--><path d="M234.268,306.159 C249.988,285.176 283.818,243.341 321,218 C329.849,211.969 340.25,206.945 350.165,202.931 " fill="none" id="Dashboard-&gt;AminoAcids" style="stroke: #000000; stroke-width: 0.5;"/><polygon fill="#000000" points="354.984,201.041,345.145,200.6002,350.3286,202.8652,348.0637,208.0488,354.984,201.041" style="stroke: #000000; stroke-width: 0.5;"/><!--MD5=[e384d6cbf7e860e9f009d9ef191d9b79]
link Dashboard to ForContainer--><path d="M259.462,309.457 C284.809,302.437 319.372,292.866 346.199,285.437 " fill="none" id="Dashboard-&gt;ForContainer" style="stroke: #000000; stroke-width: 0.5;"/><polygon fill="#000000" points="351.114,284.076,341.3729,282.6228,346.2953,285.4103,343.5078,290.3327,351.114,284.076" style="stroke: #000000; stroke-width: 0.5;"/><!--MD5=[3ef42e2ede390e239f86dea232baa4fb]
link Dashboard to getRNASequencesAPI--><path d="M230.579,332.176 C248.785,374.973 306.141,508.175 321,523 C372.079,573.964 451.334,602.292 506.559,616.8 " fill="none" id="Dashboard-&gt;getRNASequencesAPI" style="stroke: #000000; stroke-width: 0.5;"/><polygon fill="#000000" points="511.492,618.076,503.7799,611.9504,506.6512,616.8244,501.7772,619.6957,511.492,618.076" style="stroke: #000000; stroke-width: 0.5;"/><!--MD5=[9beed2e97f54e43d2734a5e6af23d0df]
link Dashboard to HelpDialog--><path d="M228.699,305.795 C238.115,275.042 266.213,198.983 321,169 C387.593,132.556 480.04,146.683 531.341,159.079 " fill="none" id="Dashboard-&gt;HelpDialog" style="stroke: #000000; stroke-width: 0.5;"/><polygon fill="#000000" points="536.478,160.348,528.6992,154.3072,531.6238,159.1494,526.7816,162.074,536.478,160.348" style="stroke: #000000; stroke-width: 0.5;"/><!--MD5=[9949b7c492d7c77a75b2147e3688b190]
link Dashboard to RNAInputs--><path d="M238.657,331.534 C256.445,347.296 289.056,374.309 321,391 C329.627,395.508 339.361,399.348 348.666,402.496 " fill="none" id="Dashboard-&gt;RNAInputs" style="stroke: #000000; stroke-width: 0.5;"/><polygon fill="#000000" points="353.485,404.08,346.1842,397.4695,348.7351,402.5186,343.686,405.0694,353.485,404.08" style="stroke: #000000; stroke-width: 0.5;"/><!--MD5=[034b11908863a700a600acfb889c92ed]
link Dashboard to saveBioInfoDataToDB--><path d="M233.263,331.792 C248.495,354.647 282.941,403.087 321,435 C386.306,489.759 475.887,534.528 527.742,558.05 " fill="none" id="Dashboard-&gt;saveBioInfoDataToDB" style="stroke: #000000; stroke-width: 0.5;"/><polygon fill="#000000" points="532.332,560.121,525.7729,552.774,527.7743,558.065,522.4833,560.0664,532.332,560.121" style="stroke: #000000; stroke-width: 0.5;"/><!--MD5=[58321788fff82b64186b13735b8133f6]
link Dashboard to SeqChart--><path d="M275.081,319 C295.542,319 319.111,319 339.367,319 " fill="none" id="Dashboard-&gt;SeqChart" style="stroke: #000000; stroke-width: 0.5;"/><polygon fill="#000000" points="344.441,319,335.441,315,339.441,319,335.441,323,344.441,319" style="stroke: #000000; stroke-width: 0.5;"/><!--MD5=[9a1fa91b3eb2855bbbd8ed1459af904f]
link Dashboard to Spinner--><path d="M237.23,306.423 C254.217,289.955 286.747,261.902 321,251 C393.587,227.896 484.258,237.138 533.538,245.098 " fill="none" id="Dashboard-&gt;Spinner" style="stroke: #000000; stroke-width: 0.5;"/><polygon fill="#000000" points="538.757,245.961,530.5299,240.5466,533.824,245.1455,529.2251,248.4395,538.757,245.961" style="stroke: #000000; stroke-width: 0.5;"/><!--MD5=[8c8f764830261135e7239dcd9fc26945]
link Dashboard to TestRNAs--><path d="M228.426,305.988 C237.734,273.036 266.523,185.412 321,136 C328.932,128.806 339.032,123.399 348.951,119.391 " fill="none" id="Dashboard-&gt;TestRNAs" style="stroke: #000000; stroke-width: 0.5;"/><polygon fill="#000000" points="353.796,117.533,343.9606,117.0175,349.1269,119.3218,346.8227,124.488,353.796,117.533" style="stroke: #000000; stroke-width: 0.5;"/><!--MD5=[e3bfacc5f2d2dbddab0502f56478d7e3]
link Dashboard to UsersSavedRNAs--><path d="M258.67,328.738 C282.212,335.547 313.982,344.736 340.082,352.285 " fill="none" id="Dashboard-&gt;UsersSavedRNAs" style="stroke: #000000; stroke-width: 0.5;"/><polygon fill="#000000" points="344.886,353.675,337.3505,347.3333,340.0826,352.2867,335.1292,355.0188,344.886,353.675" style="stroke: #000000; stroke-width: 0.5;"/><!--MD5=[52d31155fc9daf52098dde4897166374]
link ForContainer to Spinner--><path d="M438.686,267.988 C467.864,264.422 504.303,259.969 531.307,256.668 " fill="none" id="ForContainer-&gt;Spinner" style="stroke: #000000; stroke-width: 0.5;"/><polygon fill="#000000" points="536.577,256.024,527.1579,253.1465,531.614,256.6312,528.1293,261.0873,536.577,256.024" style="stroke: #000000; stroke-width: 0.5;"/><!--MD5=[80919abaead1dbc43c894f6bc4e9b790]
link ForContainer to Title--><path d="M440.113,279.284 C518.996,287.519 668.389,303.115 728.002,309.338 " fill="none" id="ForContainer-&gt;Title" style="stroke: #000000; stroke-width: 0.5;"/><polygon fill="#000000" points="733.15,309.876,724.6148,304.9617,728.1771,309.356,723.7828,312.9183,733.15,309.876" style="stroke: #000000; stroke-width: 0.5;"/><!--MD5=[5c2bca987e8db6d797f97d58ce75d769]
link getRNASequencesAPI to constants--><path d="M623.654,643.4683 C652.825,651.0016 688.553,660.2279 715.142,667.0943 " fill="none" id="getRNASequencesAPI-&gt;constants" style="stroke: #000000; stroke-width: 0.5;"/><polygon fill="#000000" points="719.997,668.348,712.2828,662.225,715.1558,667.098,710.2828,669.9709,719.997,668.348" style="stroke: #000000; stroke-width: 0.5;"/><!--MD5=[7772355fbbab569118f43f14084a3dfe]
link getRNASequencesAPI to restAPICaller--><path d="M649.212,630 C663.927,630 679.114,630 693.192,630 " fill="none" id="getRNASequencesAPI-&gt;restAPICaller" style="stroke: #000000; stroke-width: 0.5;"/><polygon fill="#000000" points="698.326,630,689.326,626,693.326,630,689.326,634,698.326,630" style="stroke: #000000; stroke-width: 0.5;"/><!--MD5=[18a763aa7c560dba8273df56d05c5681]
link HelpDialog to Title--><path d="M608.341,178.731 C621.822,182.954 636.759,188.906 649,197 C690.097,224.174 725.742,271.105 742.797,295.773 " fill="none" id="HelpDialog-&gt;Title" style="stroke: #000000; stroke-width: 0.5;"/><polygon fill="#000000" points="745.762,300.111,743.9826,290.4242,742.9392,295.984,737.3794,294.9406,745.762,300.111" style="stroke: #000000; stroke-width: 0.5;"/><!--MD5=[fd03adf82f593b8ae8b1adc7e0737abc]
link login to constants--><path d="M594.182,678.7507 C621.338,678.4523 667.623,677.9437 703.328,677.5513 " fill="none" id="login-&gt;constants" style="stroke: #000000; stroke-width: 0.5;"/><polygon fill="#000000" points="708.516,677.4943,699.4731,673.5922,703.5163,677.5486,699.56,681.5918,708.516,677.4943" style="stroke: #000000; stroke-width: 0.5;"/><!--MD5=[4f01b7aff7b1903ce8238b4813161354]
link login to restAPICaller--><path d="M592.024,673.4743 C620.85,665.7134 673.987,651.4075 711.415,641.3306 " fill="none" id="login-&gt;restAPICaller" style="stroke: #000000; stroke-width: 0.5;"/><polygon fill="#000000" points="716.358,639.9999,706.6275,638.4774,711.53,641.2999,708.7075,646.2023,716.358,639.9999" style="stroke: #000000; stroke-width: 0.5;"/><!--MD5=[5bb248f71645de01d67bd4351a254910]
link Login to login--><path d="M248.729,489.675 C260.997,492.701 275.375,498.17 285,508 C319.513,543.251 284.905,579.371 321,613 C383.393,671.1306 491.05,679.256 541.67,679.6367 " fill="none" id="Login-&gt;login" style="stroke: #000000; stroke-width: 0.5;"/><polygon fill="#000000" points="546.971,679.6495,537.9802,675.6289,541.971,679.6381,537.9619,683.6289,546.971,679.6495" style="stroke: #000000; stroke-width: 0.5;"/><!--MD5=[92cfe01be3554f15bcaac1aa1200eda8]
link Login to Title--><path d="M249.739,484.976 C317.127,481.345 508.303,465.378 649,398 C686.151,380.209 721.427,346.453 739.972,326.942 " fill="none" id="Login-&gt;Title" style="stroke: #000000; stroke-width: 0.5;"/><polygon fill="#000000" points="743.454,323.239,734.3745,327.0551,740.0287,326.8814,740.2024,332.5356,743.454,323.239" style="stroke: #000000; stroke-width: 0.5;"/><!--MD5=[a13bdd89bcf421075b752f32e01dea13]
link restAPICaller to authenticationToken--><path d="M759.724,616.306 C783.154,540.356 897.146,170.844 926.562,75.489 " fill="none" id="restAPICaller-&gt;authenticationToken" style="stroke: #000000; stroke-width: 0.5;"/><polygon fill="#000000" points="928.059,70.637,921.5849,78.059,926.5859,75.4151,929.2298,80.416,928.059,70.637" style="stroke: #000000; stroke-width: 0.5;"/><!--MD5=[10bca6d434acd9d31bf4f2147cd829d3]
link RNAInputs to Title--><path d="M429.624,406.229 C481.097,397.045 572.826,378.992 649,355 C678.623,345.67 711.57,331.435 732.403,321.93 " fill="none" id="RNAInputs-&gt;Title" style="stroke: #000000; stroke-width: 0.5;"/><polygon fill="#000000" points="737.171,319.74,727.3229,319.8626,732.6276,321.8274,730.6628,327.1321,737.171,319.74" style="stroke: #000000; stroke-width: 0.5;"/><!--MD5=[76b7d39f3db6f451bfe5bb6afbc76d73]
link saveBioInfoDataToDB to constants--><path d="M623.747,589.249 C632.661,592.858 641.463,597.377 649,603 C670.947,619.375 663.067,636.6056 685,653 C693.24,659.1593 703.191,663.831 712.924,667.3374 " fill="none" id="saveBioInfoDataToDB-&gt;constants" style="stroke: #000000; stroke-width: 0.5;"/><polygon fill="#000000" points="717.676,668.9666,710.4614,662.2622,712.9467,667.3439,707.865,669.8292,717.676,668.9666" style="stroke: #000000; stroke-width: 0.5;"/><!--MD5=[fbb52d12004260bcccb227fcb6abd44d]
link saveBioInfoDataToDB to restAPICaller--><path d="M619.318,590.188 C648.567,598.866 685.564,609.843 713.298,618.072 " fill="none" id="saveBioInfoDataToDB-&gt;restAPICaller" style="stroke: #000000; stroke-width: 0.5;"/><polygon fill="#000000" points="718.365,619.575,710.8733,613.1817,713.5713,618.1537,708.5992,620.8517,718.365,619.575" style="stroke: #000000; stroke-width: 0.5;"/><!--MD5=[1fd2322a190f9ec15b37f5ddae8ca9ff]
link SeqChart to Title--><path d="M432.685,318.17 C509.097,316.7 665.881,313.685 727.661,312.497 " fill="none" id="SeqChart-&gt;Title" style="stroke: #000000; stroke-width: 0.5;"/><polygon fill="#000000" points="732.99,312.394,723.9151,308.567,727.9909,312.4897,724.0682,316.5656,732.99,312.394" style="stroke: #000000; stroke-width: 0.5;"/><!--MD5=[06a0ab5c3280134d7bcf2035d72d0c3f]
link signUp to constants--><path d="M598.355,716.2125 C629.078,708.4472 679.651,695.6652 714.665,686.8155 " fill="none" id="signUp-&gt;constants" style="stroke: #000000; stroke-width: 0.5;"/><polygon fill="#000000" points="719.714,685.5394,710.0081,683.8677,714.8666,686.7651,711.9691,691.6236,719.714,685.5394" style="stroke: #000000; stroke-width: 0.5;"/><!--MD5=[93d75f90c9dd0f23c6c42494de8dddb1]
link signUp to restAPICaller--><path d="M601.707,718.9734 C616.871,715.8702 634.953,710.4392 649,701 C670.548,686.5202 663.998,670.2601 685,655 C692.604,649.4747 701.56,645.0515 710.443,641.5558 " fill="none" id="signUp-&gt;restAPICaller" style="stroke: #000000; stroke-width: 0.5;"/><polygon fill="#000000" points="715.362,639.7081,705.5302,639.129,710.6814,641.4666,708.3438,646.6179,715.362,639.7081" style="stroke: #000000; stroke-width: 0.5;"/><!--MD5=[1855445b762fc3d2df3c3b98a2f6a607]
link Signup to signUp--><path d="M253.468,535.207 C264.646,538.573 276.748,544.068 285,553 C323.363,594.525 279.15,636.9915 321,675 C380.082,728.6593 480.427,730.3375 533.736,726.7851 " fill="none" id="Signup-&gt;signUp" style="stroke: #000000; stroke-width: 0.5;"/><polygon fill="#000000" points="538.745,726.4266,529.4823,723.0796,533.7578,726.7837,530.0537,731.0592,538.745,726.4266" style="stroke: #000000; stroke-width: 0.5;"/><!--MD5=[5d3ce7f0b19a6301b37e4635caff5729]
link Signup to Title--><path d="M255.696,531.905 C329.497,535.01 520.283,534.138 649,454 C698.33,423.288 731.964,360.035 746.054,329.395 " fill="none" id="Signup-&gt;Title" style="stroke: #000000; stroke-width: 0.5;"/><polygon fill="#000000" points="748.147,324.767,740.7942,331.3195,746.0869,329.3229,748.0836,334.6157,748.147,324.767" style="stroke: #000000; stroke-width: 0.5;"/><!--MD5=[51369879cd2511b5fc4f722cbd3d1313]
link Spinner to Title--><path d="M597.576,260.597 C633.176,272.333 696.435,293.187 730.407,304.387 " fill="none" id="Spinner-&gt;Title" style="stroke: #000000; stroke-width: 0.5;"/><polygon fill="#000000" points="735.2,305.967,727.9028,299.3525,730.4509,304.403,725.4004,306.9511,735.2,305.967" style="stroke: #000000; stroke-width: 0.5;"/><!--MD5=[f39319d2be27e673ece5aa4b202a2579]
link <b>src</b> to App--><path d="M66.5,499.052 C66.5,503.337 66.5,507.622 66.5,511.907 " fill="none" id="&lt;b&gt;src&lt;/b&gt;-&gt;App" style="stroke: #000000; stroke-width: 1.0;"/><polygon fill="#000000" points="66.5,516.938,70.5,507.938,66.5,511.938,62.5,507.938,66.5,516.938" style="stroke: #000000; stroke-width: 1.0;"/><!--MD5=[fdfb0a3513c94a32d9bfb5eb623e45e4]
link TestRNAs to navigation--><path d="M434.134,108.019 C501.523,106.538 628.985,103.737 700.827,102.158 " fill="none" id="TestRNAs-&gt;navigation" style="stroke: #000000; stroke-width: 0.5;"/><polygon fill="#000000" points="705.902,102.046,696.8162,98.2449,700.9032,102.156,696.9922,106.243,705.902,102.046" style="stroke: #000000; stroke-width: 0.5;"/><!--MD5=[1cb4eafb4728e0dfea28d8be76539cdc]
link TestRNAs to Title--><path d="M433.566,111.246 C498.064,115.255 614.287,125.439 649,148 C704.041,183.773 735.755,259.812 747.826,294.315 " fill="none" id="TestRNAs-&gt;Title" style="stroke: #000000; stroke-width: 0.5;"/><polygon fill="#000000" points="749.465,299.095,750.3277,289.284,747.8424,294.3656,742.7607,291.8802,749.465,299.095" style="stroke: #000000; stroke-width: 0.5;"/><!--MD5=[a2f802e8d461fb39ff81ae41d75706fd]
link <b>user.service</b> to auth-header--><path d="M66.5,409.656 C66.5,413.801 66.5,417.947 66.5,422.093 " fill="none" id="&lt;b&gt;user.service&lt;/b&gt;-&gt;auth-header" style="stroke: #000000; stroke-width: 1.0;"/><polygon fill="#000000" points="66.5,427.344,70.5,418.344,66.5,422.344,62.5,418.344,66.5,427.344" style="stroke: #000000; stroke-width: 1.0;"/><!--MD5=[6b0f8c61195a0ada3c167a60afddbe71]
link UsersSavedRNAs to Title--><path d="M446.375,357.562 C526.924,345.613 670.848,324.262 728.556,315.7 " fill="none" id="UsersSavedRNAs-&gt;Title" style="stroke: #000000; stroke-width: 0.5;"/><polygon fill="#000000" points="733.541,314.961,724.0519,312.3234,728.595,315.6939,725.2245,320.237,733.541,314.961" style="stroke: #000000; stroke-width: 0.5;"/><script type="text/plantuml"><![CDATA[MD5=[886bb999b8a54a2105ad1d13f6c9277a]
@startuml

scale max 1920 width
left to right direction

skinparam nodesep 18
skinparam ranksep 36
skinparam monochrome true
skinparam shadowing false
skinparam defaultFontName Tahoma
skinparam defaultFontSize 12
skinparam roundCorner 6
skinparam dpi 150
skinparam arrowColor black
skinparam arrowThickness 0.5
skinparam packageTitleAlignment left

skinparam usecase {
  borderThickness 0.5
}

skinparam rectangle {
  borderThickness 0.5
}

skinparam component {
  borderThickness 1
}


(AminoAcids)
(App)
(app-route-handler)
(auth-header)
(<b>auth.service</b>)
(authenticationToken)
(constants)
(CustomAppBar)
(Dashboard)
(Footer)
(ForContainer)
(<b>fornac</b>)
(getRNASequencesAPI)
(HelpDialog)
(Home)
(login)
(Login)
(navigation)
(restAPICaller)
(RNAInputs)
(RNAThemes)
(saveBioInfoDataToDB)
(SeqChart)
(signUp)
(Signup)
(Spinner)
(<b>src</b>)
(TestRNAs)
(Title)
(<b>user.service</b>)
(UsersSavedRNAs)


(AminoAcids) --> (Spinner)
(AminoAcids) --> (Title)
(App) --> (app-route-handler)
(App) --> (authenticationToken)
(App) --> (CustomAppBar)
(App) --> (Dashboard)
(App) --> (Footer)
(App) --> (Home)
(App) --> (Login)
(App) --> (RNAThemes)
(App) --> (Signup)
(app-route-handler) --> (authenticationToken)
(Dashboard) --> (AminoAcids)
(Dashboard) --> (ForContainer)
(Dashboard) ---> (getRNASequencesAPI)
(Dashboard) --> (HelpDialog)
(Dashboard) --> (RNAInputs)
(Dashboard) ---> (saveBioInfoDataToDB)
(Dashboard) --> (SeqChart)
(Dashboard) --> (Spinner)
(Dashboard) --> (TestRNAs)
(Dashboard) --> (UsersSavedRNAs)
(ForContainer) --> (Spinner)
(ForContainer) --> (Title)
(getRNASequencesAPI) --> (constants)
(getRNASequencesAPI) --> (restAPICaller)
(HelpDialog) --> (Title)
(login) --> (constants)
(login) --> (restAPICaller)
(Login) ---> (login)
(Login) --> (Title)
(restAPICaller) --> (authenticationToken)
(RNAInputs) --> (Title)
(saveBioInfoDataToDB) --> (constants)
(saveBioInfoDataToDB) --> (restAPICaller)
(SeqChart) --> (Title)
(signUp) --> (constants)
(signUp) --> (restAPICaller)
(Signup) ---> (signUp)
(Signup) --> (Title)
(Spinner) --> (Title)
(<b>src</b>) -[thickness=1]> (App)
(TestRNAs) ---> (navigation)
(TestRNAs) --> (Title)
(<b>user.service</b>) -[thickness=1]> (auth-header)
(UsersSavedRNAs) --> (Title)

@enduml


' View and edit on https://arkit.pro
]]></script></g></svg>